<svg width="36" height="36" viewBox="0 0 36 36" fill="" xmlns="http://www.w3.org/2000/svg">
<path d="M22.4785 3C27.0722 3 30 5.15254 30 9.38648V30.4964C30 31.1604 29.7427 31.7973 29.2848 32.2668C28.8268 32.7364 28.2057 33 27.5412 33C27.1448 32.9936 26.7551 32.8937 26.3795 32.6957L17.961 27.9953L9.57663 32.7055C8.56681 33.2436 7.34317 32.9954 6.57646 32.0963L6.42941 31.9078L6.28894 31.6761C6.10562 31.3173 6.00672 30.9195 6 30.4964V9.65151C6 5.24894 8.86372 3 13.5215 3H22.4785ZM22.4785 5.17162H13.5215C9.92888 5.17162 8.11807 6.59368 8.11807 9.65151L8.11793 30.4783C8.119 30.5446 8.13519 30.6097 8.11759 30.5846L8.17378 30.6778C8.27059 30.8131 8.45228 30.8572 8.57942 30.7898L16.9602 26.0824C17.5849 25.7364 18.3375 25.7364 18.9653 26.0841L27.3694 30.776C27.433 30.8095 27.5033 30.8275 27.558 30.8285C27.6439 30.8285 27.7263 30.7935 27.787 30.7312C27.8478 30.669 27.8819 30.5845 27.8819 30.4964V9.38648C27.8819 6.53682 26.025 5.17162 22.4785 5.17162ZM23.1118 12.4749C23.6967 12.4749 24.1709 12.9611 24.1709 13.5608C24.1709 14.1105 23.7724 14.5648 23.2555 14.6367L23.1118 14.6466H12.8106C12.2257 14.6466 11.7516 14.1604 11.7516 13.5608C11.7516 13.0111 12.15 12.5568 12.6669 12.4849L12.8106 12.4749H23.1118Z" fill=""/>
</svg>
